<?xml version="1.0" encoding="UTF-8" standalone="no"?>
<!-- Created with Inkscape (http://www.inkscape.org/) -->

<svg
   width="79.375mm"
   height="79.375mm"
   viewBox="0 0 79.375 79.375"
   version="1.1"
   id="svg1"
   xml:space="preserve"
   inkscape:version="1.3.2 (1:1.3.2+202311252150+091e20ef0f)"
   sodipodi:docname="logo.svg"
   xmlns:inkscape="http://www.inkscape.org/namespaces/inkscape"
   xmlns:sodipodi="http://sodipodi.sourceforge.net/DTD/sodipodi-0.dtd"
   xmlns="http://www.w3.org/2000/svg"
   xmlns:svg="http://www.w3.org/2000/svg"><sodipodi:namedview
     id="namedview1"
     pagecolor="#505050"
     bordercolor="#eeeeee"
     borderopacity="1"
     inkscape:showpageshadow="0"
     inkscape:pageopacity="0"
     inkscape:pagecheckerboard="0"
     inkscape:deskcolor="#505050"
     inkscape:document-units="mm"
     inkscape:zoom="1.1477291"
     inkscape:cx="115.00971"
     inkscape:cy="240.03921"
     inkscape:window-width="1920"
     inkscape:window-height="1149"
     inkscape:window-x="0"
     inkscape:window-y="25"
     inkscape:window-maximized="1"
     inkscape:current-layer="layer1" /><defs
     id="defs1" /><g
     inkscape:label="Ebene 1"
     inkscape:groupmode="layer"
     id="layer1"
     transform="translate(-65.289452,-108.8125)"><g
       id="g9"
       transform="translate(-2.0364032,-64.659666)"><g
         id="g7"
         transform="translate(2.4013985,65.581977)"><path
           style="fill:#903142"
           d="m 102.33112,171.94434 c -0.94589,-0.33093 -2.669195,-1.0429 -3.829575,-1.58214 -1.16038,-0.53925 -3.958349,-1.52505 -6.217708,-2.19068 -4.90954,-1.4464 -8.92516,-3.00653 -10.464506,-4.06563 -3.152083,-2.16869 -5.236563,-4.70222 -6.217954,-7.55746 -0.401219,-1.16729 -0.932949,-1.97042 -2.087935,-3.15364 -0.852294,-0.87312 -1.692264,-1.86648 -1.866598,-2.20745 -0.389841,-0.76248 -0.161497,-1.76917 0.640368,-2.82316 0.554599,-0.72897 0.606561,-1.07007 0.606561,-3.98171 0,-3.65577 0.26893,-4.45599 1.764593,-5.2507 0.577594,-0.30689 0.949836,-0.70088 0.949836,-1.00532 0,-0.86662 0.722186,-1.94411 1.768626,-2.63878 0.555224,-0.36858 1.501507,-1.16347 2.10285,-1.76641 0.804946,-0.80709 1.306396,-1.09626 1.901005,-1.09626 1.368113,0 2.084189,-0.43824 4.212793,-2.57824 2.104099,-2.11537 5.014545,-4.34646 6.314848,-4.84083 0.521677,-0.19834 1.076098,-0.1896 1.938685,0.0306 1.066399,0.27221 1.547316,0.22328 4.100984,-0.41723 2.252737,-0.56503 3.275697,-0.69487 4.622647,-0.58675 1.55131,0.12452 1.89392,0.056 3.32144,-0.66465 1.05937,-0.53476 2.12377,-0.8441 3.18256,-0.92492 1.54767,-0.11813 1.69871,-0.0677 5.56443,1.85843 2.18547,1.08892 4.74531,2.30426 5.68854,2.70075 2.31055,0.97124 2.98745,1.46189 5.1595,3.73985 1.48846,1.56103 2.0136,1.94874 2.64584,1.95339 1.09924,0.008 2.91488,0.88362 3.41486,1.64668 0.2301,0.35118 0.60728,1.27466 0.83818,2.05218 0.51607,1.73781 0.94022,2.44205 2.39,3.96825 0.62206,0.65484 1.44981,1.88947 1.83945,2.74361 0.59505,1.30444 0.68605,1.79986 0.56858,3.0954 -0.0925,1.02051 -0.006,1.92744 0.25706,2.68034 0.84613,2.42577 0.0222,5.31468 -2.4547,8.60718 -2.5529,3.39348 -7.81474,6.4485 -15.83792,9.19549 -3.04424,1.0423 -5.10454,1.9508 -7.40833,3.26675 -1.75522,1.0026 -3.59602,1.95856 -4.09068,2.12436 -1.37583,0.46115 -3.41674,0.33402 -5.31833,-0.33129 z m 6.6615,-0.7858 c 0.92008,-0.48916 2.65581,-1.44113 3.85717,-2.11548 1.20137,-0.67436 4.05887,-1.87253 6.35,-2.6626 5.01743,-1.73021 7.02609,-2.61419 10.24553,-4.50893 2.95383,-1.73843 5.53927,-4.38535 6.81707,-6.97919 0.9545,-1.93758 1.01399,-2.81523 0.5499,-8.11213 -0.26425,-3.016 -0.77397,-4.23417 -2.58972,-6.18914 -1.27898,-1.37706 -2.12937,-2.9097 -2.39241,-4.3118 -0.26908,-1.43435 -1.58343,-2.56476 -3.29704,-2.83565 -1.30225,-0.20585 -1.55363,-0.37643 -3.49001,-2.36817 -1.73045,-1.77994 -2.45814,-2.31643 -4.26269,-3.14267 -1.19681,-0.54798 -3.93792,-1.85952 -6.09137,-2.91455 -4.71066,-2.30787 -5.61727,-2.42545 -8.38918,-1.08802 -1.49351,0.72061 -1.97286,0.82345 -3.64315,0.78164 -1.30145,-0.0326 -2.836729,0.17196 -4.74816,0.63259 -2.490521,0.60018 -2.985244,0.64483 -4.180552,0.37734 -1.148725,-0.25708 -1.484227,-0.23697 -2.197151,0.1317 -0.877269,0.45365 -1.206501,1.16076 -0.378385,0.81268 1.007948,-0.42368 1.690297,-0.43395 2.674201,-0.0403 0.987481,0.39511 1.967499,0.34929 2.573367,-0.12032 0.603587,-0.46784 4.91669,-1.55254 5.54567,-1.39468 0.84232,0.21141 0.8252,0.7233 -0.0472,1.40949 -0.54749,0.43065 -1.07711,0.54837 -2.467197,0.54837 -3.121445,0 -7.447243,1.87041 -8.394711,3.62976 -0.352964,0.65541 -0.644776,0.86816 -1.190811,0.86816 -1.241119,0 -2.393892,1.59644 -2.706875,3.74867 -0.208921,1.43666 -0.625614,1.87908 -1.65814,1.76055 -0.53854,-0.0618 -0.855114,-0.32425 -1.151611,-0.95463 l -0.408904,-0.86936 -0.6303,0.67093 c -0.346665,0.369 -0.73559,0.67092 -0.864278,0.67092 -0.641567,0 -2.458829,1.88132 -3.162584,3.27406 -0.791349,1.56608 -0.867397,2.56063 -0.437084,5.71609 0.08377,0.61428 -0.01104,0.67059 -1.498072,0.88984 -2.788632,0.41117 -2.878208,0.39696 -3.071327,-0.48728 -0.09535,-0.43656 -0.187443,-1.70721 -0.20466,-2.82366 l -0.0313,-2.0299 1.097488,-0.93941 c 0.603618,-0.51667 1.313496,-1.42188 1.577505,-2.01156 0.287252,-0.6416 0.818407,-1.25545 1.322664,-1.5286 0.805154,-0.43615 1.008381,-0.62778 2.220051,-2.09346 0.737804,-0.89247 2.675181,-1.3163 3.325739,-0.72755 0.61038,0.55239 0.929169,0.3456 1.138967,-0.73879 0.124719,-0.64465 0.858979,-1.53362 2.878444,-3.48496 1.727108,-1.66884 2.405706,-2.46208 1.869778,-2.18567 -1.097033,0.56582 -3.680331,2.83288 -4.48656,3.93732 -0.73039,1.00056 -2.232521,1.77698 -3.457279,1.78701 -0.633545,0.005 -1.140459,0.29089 -2.007407,1.13142 -0.637907,0.61846 -1.606374,1.48166 -2.15215,1.91822 -0.662548,0.52997 -1.053744,1.09941 -1.177154,1.71351 -0.132725,0.66046 -0.470218,1.11357 -1.197111,1.60723 -0.556752,0.37811 -1.135131,0.907 -1.285285,1.17531 -0.150155,0.26831 -0.286083,2.00648 -0.302064,3.86261 -0.02649,3.07656 -0.07984,3.42917 -0.603769,3.99035 -0.756437,0.81022 -1.000023,1.87218 -0.605881,2.64146 0.174701,0.34097 0.98997,1.2748 1.811709,2.07516 1.149605,1.1197 1.59878,1.79199 1.948234,2.91596 0.830383,2.6708 3.042321,5.44402 5.923023,7.426 1.69547,1.16651 5.646157,2.7133 10.484881,4.10509 2.292738,0.65946 5.19184,1.67853 6.442447,2.26458 3.447684,1.61565 4.822814,2.03319 6.766064,2.05445 1.51813,0.0166 2.00209,-0.1058 3.43958,-0.87004 z m -4.37154,-0.38823 c -0.24083,-0.26612 -0.43788,-0.61555 -0.43788,-0.77651 0,-0.16096 -0.54631,-1.92777 -1.21403,-3.92623 -1.18057,-3.53343 -1.21048,-3.70343 -1.08532,-6.1688 0.0708,-1.39437 0.26841,-3.17736 0.43915,-3.96219 l 0.31045,-1.42696 -1.19412,-1.21887 c -0.65677,-0.67038 -1.766591,-2.06386 -2.466272,-3.09663 -0.699681,-1.03276 -1.844654,-2.61034 -2.544383,-3.50573 -0.804026,-1.02884 -1.129412,-1.62797 -0.88415,-1.62797 0.590067,0 3.05897,2.11406 4.512915,3.86431 1.7288,2.08111 2.53856,2.74819 3.33201,2.7449 0.98594,-0.004 1.3763,-0.36392 1.31859,-1.21552 -0.12762,-1.88317 -0.007,-2.48328 0.5011,-2.48328 0.86294,0 1.17481,0.67385 0.98257,2.123 -0.14284,1.07677 -0.0968,1.35606 0.24496,1.48722 0.87119,0.33431 2.66899,-0.84577 5.28401,-3.46841 1.95623,-1.96193 2.6659,-2.52988 2.73203,-2.18646 0.10375,0.53874 -1.22432,2.45702 -3.5221,5.08736 -2.78758,3.19102 -3.3278,3.98693 -3.85428,5.67853 -0.61275,1.96876 -0.65369,3.95637 -0.11787,5.72265 0.49903,1.645 0.56078,8.04341 0.0822,8.52195 -0.48194,0.48194 -1.92255,0.3829 -2.41962,-0.16636 z m -10.756628,-4.20529 c -4.900841,-0.55582 -7.017475,-1.28523 -10.380171,-3.57712 -3.122849,-2.12842 -5.008811,-4.22168 -6.351671,-7.0498 -0.819997,-1.72695 -1.468114,-2.64753 -2.676588,-3.8018 -1.468138,-1.40229 -1.574855,-1.58064 -1.345687,-2.24896 0.172579,-0.50328 0.695159,-0.95189 1.704117,-1.46289 1.342299,-0.67982 1.639967,-0.72844 3.836458,-0.62654 1.974967,0.0916 2.786224,0.27552 4.754829,1.0779 2.867548,1.16878 4.833584,1.42348 6.457082,0.83651 1.49262,-0.53964 2.838567,-0.52909 4.97048,0.039 1.514765,0.40363 1.945129,0.67896 3.651243,2.33598 2.579386,2.50515 2.945406,3.23046 2.541336,5.03603 -0.17038,0.76134 -0.27684,2.73778 -0.23658,4.39208 0.0672,2.75981 0.0241,3.07679 -0.52228,3.84411 -0.327517,0.45995 -0.82588,0.9094 -1.107476,0.99878 -0.567691,0.18018 -4.258614,0.32427 -5.295092,0.20673 z m 17.474978,-0.15403 c -1.97973,-0.63113 -3.71665,-3.33102 -3.71665,-5.77721 0,-1.36361 1.07845,-4.65832 1.93962,-5.92565 0.388,-0.57101 1.67392,-2.0183 2.85759,-3.2162 1.78615,-1.80763 2.48048,-2.3147 4.08302,-2.98184 2.15159,-0.89571 3.69201,-1.01607 5.46417,-0.42696 2.31676,0.77016 3.87043,0.77959 6.13877,0.0373 3.86679,-1.26543 6.638,-0.94176 7.33298,0.85646 0.76453,1.97821 -0.46785,5.80992 -2.67513,8.31753 -1.69655,1.92737 -6.93119,5.07982 -11.64727,7.01429 -3.84148,1.57573 -6.94737,2.48309 -8.28552,2.42056 -0.31791,-0.0149 -0.98912,-0.15807 -1.49158,-0.31825 z m -8.84318,-16.40592 -0.76091,-0.60879 0.46782,-0.91116 c 0.25731,-0.50114 1.27708,-1.70848 2.26617,-2.68299 1.58962,-1.56618 2.33951,-2.0383 6.46117,-4.06784 7.2358,-3.56297 9.43937,-5.16734 9.80988,-7.14233 0.30789,-1.64119 1.60669,-1.88 2.21659,-0.40758 0.24821,0.59923 0.22323,1.0823 -0.12553,2.42823 -0.60084,2.31873 -1.18464,3.01495 -3.52563,4.20459 -2.03466,1.03397 -5.54148,3.8286 -9.29435,7.40679 -2.25998,2.15478 -2.99278,2.34288 -3.13696,0.80518 -0.0973,-1.03757 -0.69684,-1.85209 -1.36327,-1.85209 -0.73087,0 -1.54904,1.11164 -1.6402,2.22851 -0.10339,1.26682 -0.38643,1.39024 -1.37478,0.59948 z m -2.573844,-2.54396 c -1.045059,-1.41352 -3.357885,-2.89264 -6.455318,-4.12837 -3.054866,-1.21875 -4.121033,-2.09488 -5.282465,-4.34088 -0.564272,-1.09119 -0.445528,-3.42301 0.242018,-4.75257 0.355271,-0.68702 0.579184,-0.83678 1.15202,-0.77051 0.585978,0.0678 0.943968,0.48862 2.035393,2.39269 0.728396,1.27073 1.623449,2.60891 1.989007,2.97374 0.655212,0.6539 3.64208,2.02576 6.743679,3.09736 2.79193,0.96461 3.34761,1.95024 2.11969,3.75968 -0.36214,0.53365 -0.84145,1.32417 -1.06513,1.75672 -0.50858,0.98348 -0.75923,0.98554 -1.478894,0.0121 z m -14.854253,-0.0417 c -1.561165,-0.36803 -4.031315,-1.72299 -4.794427,-2.6299 -1.515519,-1.80109 -0.288865,-5.4465 2.279649,-6.77473 0.707177,-0.36569 0.904364,-0.36838 1.754421,-0.0239 0.526734,0.21343 1.298019,0.49241 1.713969,0.61994 0.502322,0.15402 0.977256,0.63168 1.414377,1.4225 0.878148,1.58872 1.806329,2.53731 3.105018,3.17329 1.272138,0.62298 4.859921,3.82898 4.593569,4.10476 -0.101713,0.10531 -0.565964,0.0586 -1.03167,-0.10371 -1.179564,-0.41119 -3.372339,-0.36811 -5.176079,0.1017 -1.681367,0.43795 -2.383143,0.45796 -3.858827,0.11008 z m 30.334717,-0.34473 c -0.42976,-1.11993 1.95343,-3.50542 5.487,-5.49228 3.0096,-1.69225 3.35159,-1.96414 4.27805,-3.40119 0.81041,-1.25706 1.64171,-1.36631 1.86593,-0.24522 0.0924,0.46229 0.17182,1.09354 0.17638,1.40277 0.005,0.30923 0.30111,1.15755 0.65903,1.88516 0.96243,1.95648 0.87662,3.05267 -0.33898,4.33053 -1.24993,1.31396 -2.31728,1.54321 -4.74025,1.01812 -2.12127,-0.45971 -5.03177,-0.25963 -6.3746,0.43822 -0.74217,0.38569 -0.8856,0.39474 -1.01256,0.0639 z m 14.56852,-1.2346 c -0.0815,-0.13181 -0.002,-0.72602 0.17571,-1.32047 0.35416,-1.18208 0.21916,-1.77912 -0.98736,-4.36677 -0.34253,-0.73461 -0.60717,-1.75074 -0.5881,-2.25807 0.0205,-0.54512 -0.22503,-1.37365 -0.60026,-2.02564 -0.9294,-1.61486 -0.45381,-1.94045 1.33888,-0.9166 1.44695,0.82639 1.93826,1.5081 2.55459,3.54456 0.20673,0.68306 1.04159,2.11181 1.85526,3.175 1.80543,2.35909 2.36861,3.54355 1.93394,4.0673 -0.21921,0.26413 -0.44238,0.29499 -0.78957,0.10918 -0.61178,-0.32742 -2.7704,-0.33515 -3.89039,-0.0139 -0.50915,0.14602 -0.91446,0.14822 -1.0027,0.005 z m -34.916313,-7.19047 c -2.119415,-1.39386 -3.871331,-4.53092 -3.455526,-6.18762 0.423708,-1.68819 3.811967,-3.81913 6.037997,-3.79742 l 0.857112,0.008 -0.70676,0.58695 c -0.388718,0.32283 -1.128439,0.88461 -1.643824,1.24841 -1.414232,0.99829 -2.134026,2.51763 -1.907711,4.02682 0.226541,1.51068 1.331286,3.07808 2.663106,3.77839 1.230799,0.64719 1.323894,1.03432 0.272272,1.13224 -0.541037,0.0504 -1.214938,-0.20309 -2.116666,-0.79613 z m 6.418813,0.45534 c -2.814515,-0.70626 -5.231503,-2.35048 -5.936898,-4.03873 -1.152098,-2.75735 3.653921,-6.28357 9.488528,-6.96182 8.49758,-0.9878 13.82242,1.32836 13.82299,6.01263 1.9e-4,1.51605 -0.27693,1.97475 -1.75773,2.90954 -1.35361,0.8545 -1.4249,0.79228 -0.46328,-0.40432 1.08655,-1.35207 1.28322,-2.76665 0.57697,-4.15 -0.61129,-1.19736 -2.16371,-2.52629 -3.48258,-2.98122 -1.43026,-0.49334 -7.52799,-0.69817 -9.67473,-0.32497 -3.68459,0.64054 -6.743125,2.77899 -6.743125,4.71462 0,0.88487 0.865356,2.29408 1.852083,3.01607 0.734686,0.53757 6.165082,1.54464 7.346672,1.36245 2.90738,-0.44829 4.4351,-1.0481 5.81635,-2.28358 0.89931,-0.8044 0.8327,-2.57996 -0.13029,-3.47289 -1.07903,-1.00054 -2.32616,-1.33623 -4.84462,-1.30406 -2.37453,0.0303 -3.08877,0.25964 -4.28551,1.37583 -1.60157,1.49377 -0.64048,3.01377 1.99935,3.16203 2.06007,0.1157 3.49076,-0.50745 3.49076,-1.52045 0,-0.85284 -0.71453,-0.99376 -1.05883,-0.20881 -0.55262,1.25987 -3.6042,0.76529 -3.19686,-0.51813 0.23451,-0.73887 0.6885,-0.88 3.32964,-1.03502 1.95453,-0.11473 2.36154,-0.0607 3.10886,0.4124 1.54352,0.97722 1.06346,2.24239 -1.25119,3.29745 -0.98082,0.44707 -1.72025,0.54392 -4.10662,0.53787 -4.61003,-0.0117 -6.217712,-0.72011 -6.217712,-2.73982 0,-0.96708 0.102585,-1.11177 1.389062,-1.95922 0.76399,-0.50326 1.89508,-1.04541 2.51354,-1.20477 0.61847,-0.15935 1.58478,-0.4088 2.14737,-0.55432 1.45454,-0.37624 3.18612,-0.32833 5.5367,0.15317 3.65623,0.74896 5.43486,1.92784 5.43486,3.60225 0,0.69291 -0.26243,1.08435 -1.42516,2.12576 -0.78384,0.70205 -2.32173,1.71284 -3.41753,2.2462 -1.91278,0.93099 -2.11924,0.97264 -5.16738,1.04234 -2.11144,0.0483 -3.68373,-0.055 -4.69369,-0.30848 z m 12.49889,-0.49856 c 0,-0.0572 0.18478,-0.17489 0.41062,-0.26155 0.23546,-0.0904 0.34166,-0.046 0.24897,0.10398 -0.15538,0.25141 -0.65959,0.37186 -0.65959,0.15757 z m 10.72942,-3.13716 c -0.056,-0.1819 -0.17273,-0.65458 -0.25932,-1.0504 -0.0866,-0.39581 -0.62789,-1.21421 -1.20289,-1.81866 -1.06836,-1.12308 -1.17871,-1.14783 -2.82555,-0.63384 -0.44203,0.13796 -0.61193,0.0451 -0.75766,-0.41403 -0.27984,-0.8817 -2.21213,-2.86886 -3.35814,-3.45352 -0.55288,-0.28205 -2.2251,-0.76004 -3.71606,-1.0622 -2.24562,-0.45509 -3.22165,-0.5189 -5.6874,-0.3718 -1.63711,0.0977 -2.97656,0.0778 -2.97656,-0.0442 0,-0.39582 2.71376,-2.01096 4.02432,-2.39514 l 1.27572,-0.37397 2.59226,1.21176 c 1.42574,0.66646 2.71873,1.21175 2.87331,1.21175 0.61458,0 3.25634,1.33823 4.0945,2.07415 0.48929,0.4296 1.65993,1.0941 2.60142,1.47666 2.48817,1.01103 4.49888,3.11946 4.49888,4.71751 0,0.9581 -0.93925,1.69712 -1.17683,0.92595 z"
           id="path8" /><path
           style="fill:#712c36"
           d="m 102.42357,171.52447 c -0.74952,-0.26663 -2.38599,-0.96428 -3.636598,-1.55034 -1.250607,-0.58605 -4.149709,-1.60512 -6.442447,-2.26458 -4.838724,-1.39179 -8.789411,-2.93858 -10.484881,-4.10509 -2.880702,-1.98198 -5.09264,-4.7552 -5.923023,-7.426 -0.349454,-1.12397 -0.798629,-1.79626 -1.948234,-2.91596 -0.821739,-0.80036 -1.637008,-1.73419 -1.811709,-2.07516 -0.394142,-0.76928 -0.150556,-1.83124 0.605881,-2.64146 0.523929,-0.56118 0.57728,-0.91379 0.603769,-3.99035 0.01598,-1.85613 0.151909,-3.5943 0.302064,-3.86261 0.150154,-0.26831 0.728533,-0.7972 1.285285,-1.17531 0.726893,-0.49366 1.064386,-0.94677 1.197111,-1.60723 0.12341,-0.6141 0.514606,-1.18354 1.177154,-1.71351 0.545776,-0.43656 1.514243,-1.29976 2.15215,-1.91822 0.866948,-0.84053 1.373862,-1.12624 2.007407,-1.13142 1.224758,-0.01 2.726889,-0.78645 3.457279,-1.78701 0.806229,-1.10444 3.389527,-3.3715 4.48656,-3.93732 0.535928,-0.27641 -0.14267,0.51683 -1.869778,2.18567 -2.019465,1.95134 -2.753725,2.84031 -2.878444,3.48496 -0.209798,1.08439 -0.528587,1.29118 -1.138967,0.73879 -0.650558,-0.58875 -2.587935,-0.16492 -3.325739,0.72755 -1.21167,1.46568 -1.414897,1.65731 -2.220051,2.09346 -0.504257,0.27315 -1.035412,0.887 -1.322664,1.5286 -0.264009,0.58968 -0.973887,1.49489 -1.577505,2.01156 l -1.097488,0.93941 0.0313,2.0299 c 0.01722,1.11645 0.109314,2.3871 0.20466,2.82366 0.193119,0.88424 0.282695,0.89845 3.071327,0.48728 1.487032,-0.21925 1.581841,-0.27556 1.498072,-0.88984 -0.430313,-3.15546 -0.354265,-4.15001 0.437084,-5.71609 0.703755,-1.39274 2.521017,-3.27406 3.162584,-3.27406 0.128688,0 0.517613,-0.30192 0.864278,-0.67092 l 0.6303,-0.67093 0.408904,0.86936 c 0.296497,0.63038 0.613071,0.8928 1.151611,0.95463 1.032526,0.11853 1.449219,-0.32389 1.65814,-1.76055 0.312983,-2.15223 1.465756,-3.74867 2.706875,-3.74867 0.546035,0 0.837847,-0.21275 1.190811,-0.86816 0.947468,-1.75935 5.273266,-3.62976 8.394711,-3.62976 1.390091,0 1.919711,-0.11772 2.467201,-0.54837 0.87235,-0.68619 0.88947,-1.19808 0.0472,-1.40949 -0.62898,-0.15786 -4.942087,0.92684 -5.545674,1.39468 -0.605868,0.46961 -1.585886,0.51543 -2.573367,0.12032 -0.983904,-0.39368 -1.666253,-0.38341 -2.674201,0.0403 -0.828116,0.34808 -0.498884,-0.35903 0.378385,-0.81268 0.712924,-0.36867 1.048426,-0.38878 2.197151,-0.1317 1.195308,0.26749 1.690031,0.22284 4.180552,-0.37734 1.911431,-0.46063 3.446714,-0.66518 4.748164,-0.63259 1.67029,0.0418 2.14964,-0.061 3.64315,-0.78164 2.77191,-1.33743 3.67852,-1.21985 8.38918,1.08802 2.15345,1.05503 4.89456,2.36657 6.09137,2.91455 1.80455,0.82624 2.53224,1.36273 4.26269,3.14267 1.93638,1.99174 2.18776,2.16232 3.49001,2.36817 1.71361,0.27089 3.02796,1.4013 3.29704,2.83565 0.26304,1.4021 1.11343,2.93474 2.39241,4.3118 1.81575,1.95497 2.32547,3.17314 2.58972,6.18914 0.46409,5.2969 0.4046,6.17455 -0.5499,8.11213 -1.2778,2.59384 -3.86324,5.24076 -6.81707,6.97919 -3.21944,1.89474 -5.2281,2.77872 -10.24553,4.50893 -2.29113,0.79007 -5.14863,1.98824 -6.35,2.6626 -5.24917,2.9465 -5.3954,3.00633 -7.29675,2.98552 -0.99157,-0.0109 -2.36462,-0.23202 -3.12947,-0.50411 z m 4.61713,-0.5878 c 0.47854,-0.47854 0.41679,-6.87695 -0.0822,-8.52195 -0.53582,-1.76628 -0.49488,-3.75389 0.11787,-5.72265 0.52648,-1.6916 1.0667,-2.48751 3.85428,-5.67853 2.29778,-2.63034 3.62585,-4.54862 3.5221,-5.08736 -0.0661,-0.34342 -0.7758,0.22453 -2.73203,2.18646 -2.61502,2.62264 -4.41282,3.80272 -5.28401,3.46841 -0.3418,-0.13116 -0.3878,-0.41045 -0.24496,-1.48722 0.19224,-1.44915 -0.11963,-2.123 -0.98257,-2.123 -0.50763,0 -0.62872,0.60011 -0.5011,2.48328 0.0577,0.8516 -0.33265,1.21144 -1.31859,1.21552 -0.79345,0.003 -1.60321,-0.66379 -3.33201,-2.7449 -1.453945,-1.75025 -3.922848,-3.86431 -4.512915,-3.86431 -0.245262,0 0.08012,0.59913 0.88415,1.62797 0.699729,0.89539 1.844702,2.47297 2.544383,3.50573 0.699681,1.03277 1.809502,2.42625 2.466272,3.09663 l 1.19412,1.21887 -0.31045,1.42696 c -0.17074,0.78483 -0.36836,2.56782 -0.43915,3.96219 -0.12516,2.46537 -0.0952,2.63537 1.08532,6.1688 0.66772,1.99846 1.21403,3.76527 1.21403,3.92623 0,1.00666 2.10059,1.69977 2.8575,0.94287 z m -7.881156,-4.57838 c 0.281596,-0.0894 0.779959,-0.53883 1.107476,-0.99878 0.54638,-0.76732 0.58944,-1.0843 0.52228,-3.84411 -0.0403,-1.6543 0.0662,-3.63074 0.23658,-4.39208 0.40407,-1.80557 0.038,-2.53088 -2.541336,-5.03603 -1.706114,-1.65702 -2.136478,-1.93235 -3.651243,-2.33598 -2.131913,-0.56808 -3.47786,-0.57863 -4.97048,-0.039 -1.623498,0.58697 -3.589534,0.33227 -6.457082,-0.83651 -1.968605,-0.80238 -2.779862,-0.98629 -4.754829,-1.0779 -2.196491,-0.1019 -2.494159,-0.0533 -3.836458,0.62654 -1.008958,0.511 -1.531538,0.95961 -1.704117,1.46289 -0.229168,0.66832 -0.122451,0.84667 1.345687,2.24896 1.208474,1.15427 1.856591,2.07485 2.676588,3.8018 1.34286,2.82812 3.228822,4.92138 6.351671,7.0498 3.362696,2.29189 5.47933,3.0213 10.380171,3.57712 1.036478,0.11754 4.727401,-0.0266 5.295092,-0.20673 z m 16.052716,0.0153 c 0.99178,-0.21048 3.6487,-1.13967 5.90427,-2.06488 4.71608,-1.93447 9.95072,-5.08692 11.64727,-7.01429 2.20728,-2.50761 3.43966,-6.33932 2.67513,-8.31753 -0.69498,-1.79822 -3.46619,-2.12189 -7.33298,-0.85646 -2.26834,0.74232 -3.82201,0.73289 -6.13877,-0.0373 -1.77216,-0.58911 -3.31258,-0.46875 -5.46417,0.42696 -1.60254,0.66714 -2.29687,1.17421 -4.08302,2.98184 -1.18367,1.1979 -2.46959,2.64519 -2.85759,3.2162 -0.86117,1.26733 -1.93962,4.56204 -1.93962,5.92565 0,2.44619 1.73692,5.14608 3.71665,5.77721 1.27207,0.40553 1.81011,0.40033 3.87283,-0.0374 z m -11.34123,-16.96797 c 0.0912,-1.11687 0.90933,-2.22851 1.6402,-2.22851 0.66643,0 1.26598,0.81452 1.36327,1.85209 0.14418,1.5377 0.87698,1.3496 3.13696,-0.80518 3.75287,-3.57819 7.25969,-6.37282 9.29435,-7.40679 2.34099,-1.18964 2.92479,-1.88586 3.52563,-4.20459 0.34876,-1.34593 0.37374,-1.829 0.12553,-2.42823 -0.6099,-1.47242 -1.9087,-1.23361 -2.21659,0.40758 -0.37051,1.97499 -2.57408,3.57936 -9.80988,7.14233 -4.12166,2.02954 -4.87155,2.50166 -6.46117,4.06784 -0.98909,0.97451 -2.00886,2.18185 -2.26617,2.68299 l -0.46782,0.91116 0.76091,0.60879 c 0.98835,0.79076 1.27139,0.66734 1.37478,-0.59948 z M 101.4013,147.449 c 0.22368,-0.43255 0.70299,-1.22307 1.06513,-1.75672 1.22792,-1.80944 0.67224,-2.79507 -2.11969,-3.75968 -3.101599,-1.0716 -6.088467,-2.44346 -6.743679,-3.09736 -0.365558,-0.36483 -1.260611,-1.70301 -1.989007,-2.97374 -1.091425,-1.90407 -1.449415,-2.3249 -2.035393,-2.39269 -0.572836,-0.0663 -0.796749,0.0835 -1.15202,0.77051 -0.687546,1.32956 -0.80629,3.66138 -0.242018,4.75257 1.161432,2.246 2.227599,3.12213 5.282465,4.34088 3.097433,1.23573 5.410259,2.71485 6.455318,4.12837 0.719664,0.9734 0.970314,0.97134 1.478894,-0.0121 z m -12.47432,-0.1396 c 1.80374,-0.46981 3.996515,-0.51289 5.176079,-0.1017 0.465706,0.16235 0.929957,0.20902 1.03167,0.10371 0.266352,-0.27578 -3.321431,-3.48178 -4.593569,-4.10476 -1.298689,-0.63598 -2.22687,-1.58457 -3.105018,-3.17329 -0.437121,-0.79082 -0.912055,-1.26848 -1.414377,-1.4225 -0.41595,-0.12753 -1.187235,-0.40651 -1.713969,-0.61994 -0.850057,-0.34445 -1.047244,-0.34176 -1.754421,0.0239 -1.656147,0.85643 -2.976423,3.03002 -2.976423,4.90013 0,1.37558 0.919232,2.46324 2.946829,3.48676 2.616076,1.3206 4.041895,1.52271 6.403199,0.90766 z m 30.20518,-0.93799 c 1.28909,-0.13232 2.40101,-0.0711 3.65787,0.20123 2.42297,0.52509 3.49032,0.29584 4.74025,-1.01812 1.2156,-1.27786 1.30141,-2.37405 0.33898,-4.33053 -0.35792,-0.72761 -0.65448,-1.57593 -0.65903,-1.88516 -0.005,-0.30923 -0.0839,-0.94048 -0.17638,-1.40277 -0.22422,-1.12109 -1.05552,-1.01184 -1.86593,0.24522 -0.92646,1.43705 -1.26845,1.70894 -4.27805,3.40119 -3.53357,1.98686 -5.91676,4.37235 -5.487,5.49228 0.12696,0.33085 0.27039,0.3218 1.01256,-0.0639 0.47555,-0.24714 1.69808,-0.53489 2.71673,-0.63945 z m 13.97242,-0.7818 c 0.70175,0 1.49371,0.11656 1.7599,0.25903 0.34719,0.18581 0.57036,0.15495 0.78957,-0.10918 0.43467,-0.52375 -0.12851,-1.70821 -1.93394,-4.0673 -0.81367,-1.06319 -1.64853,-2.49194 -1.85526,-3.175 -0.61633,-2.03646 -1.10764,-2.71817 -2.55459,-3.54456 -1.79269,-1.02385 -2.26828,-0.69826 -1.33888,0.9166 0.37523,0.65199 0.62076,1.48052 0.60026,2.02564 -0.0191,0.50733 0.24557,1.52346 0.5881,2.25807 1.20652,2.58765 1.34152,3.18469 0.98736,4.36677 -0.41136,1.37302 -0.25305,1.62477 0.82699,1.31502 0.47001,-0.1348 1.42874,-0.24509 2.13049,-0.24509 z m -35.168922,-6.48229 c -0.01641,-0.14552 -0.482694,-0.50271 -1.036187,-0.79375 -1.33182,-0.70031 -2.436565,-2.26771 -2.663106,-3.77839 -0.226315,-1.50919 0.493479,-3.02853 1.907711,-4.02682 0.515385,-0.3638 1.255106,-0.92558 1.643824,-1.24841 l 0.70676,-0.58695 -0.857112,-0.008 c -2.22603,-0.0217 -5.614289,2.10923 -6.037997,3.79742 -0.607869,2.42194 3.207574,7.20392 5.572192,6.98375 0.436563,-0.0406 0.780324,-0.19297 0.763915,-0.33849 z m 13.399302,-0.73616 c 1.0958,-0.53336 2.63369,-1.54415 3.41753,-2.2462 1.66547,-1.4917 1.87769,-2.48302 0.78575,-3.67032 -1.62187,-1.76349 -7.33529,-2.98604 -10.33215,-2.21086 -0.56259,0.14552 -1.5289,0.39497 -2.14737,0.55432 -0.61846,0.15936 -1.74955,0.70151 -2.51354,1.20477 -1.286477,0.84745 -1.389062,0.99214 -1.389062,1.95922 0,2.01971 1.607682,2.72814 6.217712,2.73982 2.38637,0.006 3.1258,-0.0908 4.10662,-0.53787 2.31465,-1.05506 2.79471,-2.32023 1.25119,-3.29745 -0.74732,-0.47314 -1.15433,-0.52713 -3.10886,-0.4124 -2.64114,0.15502 -3.09513,0.29615 -3.32964,1.03502 -0.40734,1.28342 2.64424,1.778 3.19686,0.51813 0.3443,-0.78495 1.05883,-0.64403 1.05883,0.20881 0,1.013 -1.43069,1.63615 -3.49076,1.52045 -2.63983,-0.14826 -3.60092,-1.66826 -1.99935,-3.16203 1.19674,-1.11619 1.91098,-1.34549 4.28551,-1.37583 2.51846,-0.0322 3.76559,0.30352 4.84462,1.30406 0.96299,0.89293 1.0296,2.66849 0.13029,3.47289 -1.38125,1.23548 -2.90897,1.83529 -5.81635,2.28358 -1.18159,0.18219 -6.611986,-0.82488 -7.346672,-1.36245 -0.986727,-0.72199 -1.852083,-2.1312 -1.852083,-3.01607 0,-1.93563 3.058535,-4.07408 6.743125,-4.71462 2.14674,-0.3732 8.24447,-0.16837 9.67473,0.32497 1.31887,0.45493 2.87129,1.78386 3.48258,2.98122 0.70625,1.38335 0.50958,2.79793 -0.57697,4.15 -0.96162,1.1966 -0.89033,1.25882 0.46328,0.40432 1.4808,-0.93479 1.75792,-1.39349 1.75773,-2.90954 -5.7e-4,-4.68427 -5.32541,-7.00043 -13.82299,-6.01263 -4.28742,0.49839 -8.323138,2.62714 -9.340411,4.92686 -0.458065,1.03553 -0.474034,1.25493 -0.148117,2.03496 0.426089,1.01978 1.867263,2.35624 3.364571,3.12011 1.903357,0.97102 3.878407,1.30457 7.266017,1.2271 3.04814,-0.0697 3.2546,-0.11135 5.16738,-1.04234 z m 3.29741,0.0777 c 0.0927,-0.14998 -0.0135,-0.19433 -0.24897,-0.10398 -0.45837,0.17589 -0.54223,0.36554 -0.16165,0.36554 0.13694,0 0.32171,-0.1177 0.41062,-0.26156 z m 10.92916,-2.96636 c 1.26653,-1.26653 -1.03299,-4.37738 -4.18138,-5.65669 -0.94149,-0.38256 -2.11213,-1.04706 -2.60142,-1.47666 -0.83816,-0.73592 -3.47992,-2.07415 -4.0945,-2.07415 -0.15458,0 -1.44757,-0.54529 -2.87331,-1.21175 l -2.59226,-1.21176 -1.27572,0.37397 c -1.31056,0.38418 -4.02432,1.99932 -4.02432,2.39514 0,0.12199 1.33945,0.14189 2.97656,0.0442 2.46575,-0.1471 3.44178,-0.0833 5.6874,0.3718 1.49096,0.30216 3.16318,0.78015 3.71606,1.0622 1.14601,0.58466 3.0783,2.57182 3.35814,3.45352 0.14573,0.45914 0.31563,0.55199 0.75766,0.41403 1.64684,-0.51399 1.75719,-0.48924 2.82555,0.63384 0.575,0.60445 1.11629,1.42285 1.20289,1.81866 0.3323,1.51897 0.50198,1.68031 1.11865,1.06363 z"
           id="path7" /></g><path
         style="opacity:0.904658;fill:#a05056;fill-opacity:1;stroke:#1b419e;stroke-width:0.116427;stroke-linecap:round;stroke-linejoin:round"
         d="m 407.66717,894.7315 c -2.85964,-0.81866 -4.23539,-2.19318 -4.87126,-4.86687 -0.43596,-1.83314 -1.96708,-6.73706 -4.58202,-14.67546 -4.13944,-12.56641 -4.42383,-14.03872 -4.08183,-21.13159 0.39741,-8.24207 1.04367,-13.67242 2.30959,-19.4069 l 0.61203,-2.77241 -0.56877,-0.61466 c -0.31282,-0.33807 -1.5489,-1.62031 -2.74685,-2.84943 -4.3502,-4.4634 -6.47876,-7.15275 -12.86223,-16.25086 -1.36704,-1.94839 -3.91707,-5.44856 -5.66672,-7.77816 -1.74965,-2.3296 -3.46286,-4.65149 -3.80713,-5.15977 -0.74107,-1.0941 -1.43871,-2.43598 -1.43871,-2.76729 0,-0.95273 3.29549,1.02072 7.18812,4.30449 2.79622,2.35886 8.17776,7.81585 11.16714,11.32372 5.98899,7.02775 8.64065,9.08736 11.6996,9.08736 2.30644,0 4.04692,-0.84217 4.61557,-2.23333 0.13379,-0.32734 0.19279,-1.83188 0.20232,-5.15977 0.0129,-4.49206 0.0282,-4.72964 0.35043,-5.42724 0.47369,-1.02553 1.11917,-1.32544 2.31347,-1.07494 0.47831,0.10033 1.12779,0.35324 1.44329,0.56203 1.25105,0.82791 1.83744,3.18394 1.52735,6.13666 -0.58318,5.55311 -0.49598,6.28667 0.80946,6.809 1.91136,0.76477 4.97952,-0.36559 9.12578,-3.3621 3.0496,-2.20394 6.12534,-4.95043 11.98306,-10.70029 6.02864,-5.91763 8.25529,-7.7916 8.94396,-7.52733 0.70888,0.27202 -0.12539,2.40604 -2.17904,5.57386 -1.97398,3.04493 -5.3887,7.42288 -9.70503,12.44263 -1.33098,1.54788 -3.43163,3.99065 -4.66812,5.42838 -6.70976,7.80179 -9.05605,11.40284 -10.75046,16.49963 -1.53877,4.62862 -2.07776,7.90338 -2.08755,12.68339 -0.008,3.98171 0.18968,5.58666 1.14722,9.30647 0.60441,2.34801 0.93543,4.40748 1.22735,7.63606 0.64758,7.16202 0.6088,18.80703 -0.0761,22.84229 -0.34226,2.01664 -0.49996,2.302 -1.55916,2.82133 -0.80648,0.39543 -1.07995,0.4455 -2.59571,0.4753 -1.05822,0.0208 -1.96636,-0.0446 -2.41909,-0.1742 z"
         id="path9"
         transform="scale(0.26458333)" /></g></g></svg>
